<svg xmlns="http://www.w3.org/2000/svg" viewBox="0 0 23.45 23.46"><defs><style>.cls-1,.cls-3,.cls-5{fill:#3498db;}.cls-2{fill:#fff;}.cls-2,.cls-3,.cls-4{fill-rule:evenodd;}.cls-4{opacity:0.3;}.cls-4,.cls-5{isolation:isolate;}.cls-5{opacity:0.88;}</style></defs><title>Social-Icon-Instagram</title><g id="Layer_2" data-name="Layer 2"><g id="Icons_Mobile" data-name="Icons Mobile"><path class="cls-1" d="M13.76,7.72h-4A1.88,1.88,0,0,0,7.83,9.59v4.26a1.88,1.88,0,0,0,1.88,1.87h4a1.87,1.87,0,0,0,1.87-1.87V9.59A1.87,1.87,0,0,0,13.76,7.72Zm-2,6.8a2.7,2.7,0,1,1,2.7-2.7A2.71,2.71,0,0,1,11.73,14.52Zm2.6-4.9a.6.6,0,0,1,0-1.2.6.6,0,0,1,0,1.2Z"/><path class="cls-1" d="M11.73,0A11.72,11.72,0,0,0,0,11.69v0A11.72,11.72,0,0,0,11.73,23.44a9.1,9.1,0,0,0,.91,0A11.72,11.72,0,0,0,11.73,0Zm-2,16.72a2.88,2.88,0,0,1-2.88-2.87V9.59a2.85,2.85,0,0,1,.7-1.88,2.91,2.91,0,0,1,2.18-1h4a2.86,2.86,0,0,1,2.87,2.87v4.26a2.87,2.87,0,0,1-2.87,2.87Z"/><path class="cls-2" d="M14.93,9a.6.6,0,0,1-.6.6.6.6,0,0,1,0-1.2A.6.6,0,0,1,14.93,9Z"/><path class="cls-3" d="M13.76,7.72h-4A1.88,1.88,0,0,0,7.83,9.59v4.26a1.88,1.88,0,0,0,1.88,1.87h4a1.87,1.87,0,0,0,1.87-1.87V9.59A1.87,1.87,0,0,0,13.76,7.72Zm-2,6.8a2.7,2.7,0,1,1,2.7-2.7A2.71,2.71,0,0,1,11.73,14.52Zm2.6-4.9a.6.6,0,0,1,0-1.2.6.6,0,0,1,0,1.2Z"/><path class="cls-2" d="M15.9,7.67a2.89,2.89,0,0,0-2.14-1h-4a2.91,2.91,0,0,0-2.18,1,2.85,2.85,0,0,0-.7,1.88v4.26a2.88,2.88,0,0,0,2.88,2.87h4a2.87,2.87,0,0,0,2.87-2.87V9.59A2.89,2.89,0,0,0,15.9,7.67Zm-.27,6.18a1.87,1.87,0,0,1-1.87,1.87h-4a1.88,1.88,0,0,1-1.88-1.87V9.59A1.88,1.88,0,0,1,9.71,7.72h4a1.87,1.87,0,0,1,1.87,1.87Z"/><path class="cls-2" d="M11.73,9.12a2.7,2.7,0,1,0,2.7,2.7A2.71,2.71,0,0,0,11.73,9.12Zm0,4.4a1.7,1.7,0,1,1,1.7-1.7A1.7,1.7,0,0,1,11.73,13.52Z"/><path class="cls-4" d="M15.42,16.19,12.64,23.4l0,0q-.45,0-.9,0A11.72,11.72,0,0,1,0,11.74v0H0L5.57,8.8l2-1.09a2.85,2.85,0,0,0-.7,1.88v4.26a2.88,2.88,0,0,0,2.88,2.87h4A2.88,2.88,0,0,0,15.42,16.19Z"/><circle class="cls-1" cx="11.73" cy="11.82" r="1.7"/><circle class="cls-5" cx="11.73" cy="11.82" r="1.7"/></g></g></svg>